<svg width="382" height="182" viewBox="0 0 382 182" fill="none" xmlns="http://www.w3.org/2000/svg">
<g clip-path="url(#clip0)">
<path d="M59.4182 180.581C59.4182 180.581 17.7873 188.227 4.53606 159.302C-12.6568 121.779 22.666 93.3264 49.7566 98.6272C108.788 110.179 94.5736 -17.2533 189.311 8.75417C215.949 16.0665 287.926 -27.3756 307.999 42.2815C312.771 58.8448 329.684 60.669 354.235 71.179C402.282 91.7483 380.314 180.929 345.981 181.279C311.648 181.63 59.4182 180.581 59.4182 180.581Z" fill="#97D8C4"/>
<path d="M279.448 181.08H303.966V89.7159H279.448V181.08Z" fill="#858999"/>
<path d="M268 181.08H286.016V89.7159H268V181.08Z" fill="#A9ACBF"/>
<path d="M277.311 175.422C279.532 175.422 281.332 173.622 281.332 171.401C281.332 169.179 279.532 167.379 277.311 167.379C275.089 167.379 273.289 169.179 273.289 171.401C273.289 173.622 275.089 175.422 277.311 175.422Z" fill="#858999"/>
<path d="M281.332 99.0151H273.289V146.97H281.332V99.0151Z" fill="#FBFAFF"/>
<path d="M314.993 181.08H339.511V89.7159H314.993V181.08Z" fill="#6250AD"/>
<path d="M303.545 181.08H321.56V89.7159H303.545V181.08Z" fill="#8D67E7"/>
<path d="M312.855 175.422C315.076 175.422 316.877 173.622 316.877 171.401C316.877 169.179 315.076 167.379 312.855 167.379C310.634 167.379 308.833 169.179 308.833 171.401C308.833 173.622 310.634 175.422 312.855 175.422Z" fill="#6250AD"/>
<path d="M316.877 99.0151H308.833V146.97H316.877V99.0151Z" fill="#FBFAFF"/>
<path d="M207.008 72.0119L215.653 174.799C215.653 174.799 216.558 181.029 211.924 181.041C204.304 181.059 173.996 181.041 173.996 181.041C173.996 181.041 179.732 179.743 179.662 176.826C179.58 173.386 169.558 71.0405 169.558 71.0405L207.008 72.0119Z" fill="#4B4187"/>
<path d="M171.536 179.176C173.036 179.181 201.983 179.272 209.405 179.176C212.638 179.136 213.206 176.301 213.233 174.467C213.246 173.587 213.134 172.937 213.134 172.937L212.91 170.266L212.336 163.457L211.83 157.441L211.179 149.711L210.631 143.186L204.489 70.1477L167.038 69.1762C167.038 69.1762 171.259 112.007 174.245 143.186C174.578 146.659 174.896 149.99 175.189 153.099C175.285 154.092 175.375 155.062 175.464 156.008C175.74 158.958 175.993 161.666 176.213 164.058C176.329 165.319 176.437 166.49 176.534 167.563C176.915 171.768 177.138 174.454 177.141 174.963C177.142 175.261 177.116 175.538 177.068 175.796C176.454 179.069 172.1 179.176 171.536 179.176Z" fill="#8D67E7"/>
<path d="M118.158 16.0797H297.96L276.903 100.66L274.02 112.243L264.214 151.64H82.0098L118.158 16.0797Z" fill="#8D67E7"/>
<path d="M297.96 16.0797L300.878 17.0525L268.092 154.583L264.212 151.64L297.96 16.0797Z" fill="#524B99"/>
<path d="M268.092 154.583H87.0113L82.011 151.64H264.212L268.092 154.583Z" fill="#6250AD"/>
<path d="M204.503 179.217H165.296V181.079H204.503V179.217Z" fill="#4B4187"/>
<path d="M175.262 154.581L175.465 156.006L212.336 163.454L211.831 157.438L211.589 154.581H175.262Z" fill="#524B99"/>
<path d="M118.158 16.0797H297.96L270.862 124.993L88.9861 125.027L118.158 16.0797Z" fill="#8D67E7"/>
<path d="M168.282 138.799C168.801 136.128 171.388 133.962 174.06 133.962C176.733 133.962 178.477 136.128 177.958 138.799C177.438 141.471 174.851 143.636 172.179 143.636C169.508 143.638 167.762 141.471 168.282 138.799Z" fill="#6250AD"/>
<path d="M97.4661 120.306H265.815L284.881 44.3562L286.341 38.5318L287.589 33.5644L290.513 21.9155H124.59L121.379 33.5644L120.01 38.5318L118.405 44.3562L97.4661 120.306Z" fill="#FBFAFF"/>
<path d="M124.589 21.9155H290.513L278.641 69.1748H111.561L124.589 21.9155Z" fill="#EFEFF5"/>
<path d="M264.094 26.129H282.201L281.325 29.4711H263.172L264.094 26.129Z" fill="#8D67E7"/>
<path d="M240.072 26.129H258.18L257.305 29.4711H239.151L240.072 26.129Z" fill="#8D67E7"/>
<path d="M216.109 26.129H234.218L233.342 29.4711H215.189L216.109 26.129Z" fill="#8D67E7"/>
</g>
<path d="M88.4552 81.1357C95.8888 97.6933 115.321 105.053 131.858 97.5739C148.395 90.0949 155.775 70.6093 148.342 54.0517C140.908 37.4941 121.476 30.1344 104.939 37.6135C88.4015 45.0925 81.0216 64.5781 88.4552 81.1357Z" fill="#EFEFF5"/>
<path d="M86.9709 91.3401L83.6536 86.1138L60.4491 100.929L63.7665 106.155L86.9709 91.3401Z" fill="#8D67E7"/>
<path d="M68.6225 106.307L35.2903 127.585C32.5625 129.325 28.9584 128.519 27.2273 125.799C25.4952 123.069 26.3006 119.458 29.0242 117.716L62.3564 96.438C65.0842 94.6974 68.6856 95.4978 70.4194 98.2239C72.1489 100.948 71.3503 104.566 68.6225 106.307Z" fill="#3D4464"/>
<path d="M154.855 44.3176C142.063 24.166 115.373 18.2497 95.2394 31.1047C75.1059 43.9597 69.1533 70.7157 81.9453 90.8672C94.7373 111.019 121.428 116.935 141.561 104.08C161.693 91.2294 167.646 64.4734 154.855 44.3176ZM90.6872 85.2836C80.9621 69.966 85.4877 49.6259 100.794 39.8587C116.098 30.0857 136.388 34.5837 146.107 49.9039C155.832 65.2214 151.307 85.5616 136 95.3287C120.698 105.097 100.412 100.601 90.6872 85.2836Z" fill="#3D4464"/>
<path d="M49.226 118.688L35.2923 127.581C32.5644 129.321 28.9604 128.515 27.2293 125.795C25.4972 123.065 26.3026 119.454 29.0262 117.712L42.9599 108.819L49.226 118.688Z" fill="#3D4464"/>
<defs>
<clipPath id="clip0">
<rect width="382" height="179.497" fill="white" transform="translate(0 2)"/>
</clipPath>
</defs>
</svg>
