<svg width="13" height="13" viewBox="0 0 13 13" fill="none" xmlns="http://www.w3.org/2000/svg">
<g clip-path="url(#clip0)">
<path d="M6.4073 6.26214C7.26761 6.26214 8.01256 5.95358 8.62125 5.34481C9.22993 4.73613 9.53848 3.99137 9.53848 3.13097C9.53848 2.27087 9.22993 1.52601 8.62115 0.917134C8.01237 0.308554 7.26751 0 6.4073 0C5.5469 0 4.80214 0.308554 4.19346 0.917233C3.58478 1.52591 3.27612 2.27077 3.27612 3.13097C3.27612 3.99137 3.58478 4.73623 4.19356 5.3449C4.80234 5.95348 5.5472 6.26214 6.4073 6.26214V6.26214Z" fill="#3D4464"/>
<path d="M11.8861 9.99634C11.8685 9.74303 11.833 9.46671 11.7808 9.17492C11.728 8.88094 11.6601 8.60303 11.5787 8.34903C11.4947 8.0865 11.3805 7.82723 11.2392 7.57878C11.0926 7.32091 10.9204 7.09636 10.7272 6.91159C10.5252 6.71828 10.2778 6.56287 9.99181 6.4495C9.70676 6.33673 9.39086 6.2796 9.05295 6.2796C8.92024 6.2796 8.7919 6.33405 8.54405 6.49542C8.3915 6.5949 8.21307 6.70995 8.01392 6.8372C7.84362 6.94571 7.61292 7.04737 7.32797 7.13941C7.04997 7.22937 6.76769 7.27499 6.48909 7.27499C6.21049 7.27499 5.92831 7.22937 5.65001 7.13941C5.36536 7.04747 5.13466 6.94581 4.96456 6.8373C4.76729 6.71124 4.58876 6.59619 4.43394 6.49532C4.18638 6.33395 4.05794 6.2795 3.92523 6.2795C3.58722 6.2795 3.27142 6.33673 2.98647 6.4496C2.70063 6.56277 2.45317 6.71818 2.25094 6.91169C2.05783 7.09656 1.88555 7.32101 1.73916 7.57878C1.59802 7.82723 1.48376 8.0864 1.39966 8.34913C1.31843 8.60313 1.25049 8.88094 1.19772 9.17492C1.14545 9.46631 1.10995 9.74273 1.09239 9.99664C1.07513 10.2454 1.06641 10.5036 1.06641 10.7643C1.06641 11.4429 1.28213 11.9923 1.70752 12.3974C2.12766 12.7972 2.68357 13.0001 3.3596 13.0001H9.61918C10.2952 13.0001 10.8509 12.7973 11.2712 12.3974C11.6966 11.9926 11.9124 11.4431 11.9124 10.7642C11.9123 10.5023 11.9034 10.2439 11.8861 9.99634V9.99634Z" fill="#3D4464"/>
</g>
<defs>
<clipPath id="clip0">
<rect width="13" height="13" fill="white"/>
</clipPath>
</defs>
</svg>
