<svg width="20" height="20" viewBox="0 0 20 20" fill="none" xmlns="http://www.w3.org/2000/svg">
<path d="M19.5945 17.64L15.3679 13.4128C16.3952 11.9839 16.96 10.2765 16.96 8.47917C16.96 6.21524 16.0786 4.08611 14.4754 2.48442C12.8758 0.883422 10.7452 -3.05176e-05 8.47978 -3.05176e-05C6.21508 -3.05176e-05 4.08518 0.881348 2.48413 2.48442C0.883076 4.08473 0.000976562 6.21455 0.000976562 8.47917C0.000976562 10.7438 0.882385 12.8729 2.48413 14.4753C4.08518 16.0763 6.21439 16.9598 8.47978 16.9598C10.2765 16.9598 11.9826 16.3978 13.4129 15.3678L17.6395 19.5949C17.9105 19.8652 18.2631 20 18.617 20C18.9716 20 19.3249 19.8652 19.5945 19.5949C20.1344 19.0543 20.1344 18.1799 19.5945 17.64ZM4.43982 12.5197C3.36001 11.4399 2.76618 10.0041 2.76618 8.47848C2.76618 6.95284 3.36001 5.51844 4.43982 4.43866C5.51894 3.35889 6.95339 2.76439 8.47978 2.76439C10.0062 2.76439 11.4413 3.35889 12.5204 4.43866C13.6002 5.51844 14.1948 6.95353 14.1948 8.47917C14.1948 10.0048 13.6009 11.4399 12.5204 12.5204C11.4406 13.6002 10.0069 14.1933 8.47978 14.1933C6.95269 14.1933 5.51755 13.5988 4.43982 12.5197Z" fill="#A9ACBF"/>
</svg>
